<svg aria-hidden="true" role="img" class="logo__svg-path" width="256" height="100" preserveAspectRatio="xMidYMid meet" viewBox="-20 100 300 20"
    xmlns="http://www.w3.org/2000/svg">
    <g transform="matrix(4.34798 0 0 4.33333 64 64)">
        <path d="m28.007 0c-3.164 0-6.292.8-9.048 2.315-1.476.811-2.839 1.817-4.05 2.992-.285.275-.564.563-.831.857-.893.984-1.685 2.064-2.35 3.209-.236.411-.498.812-.778 1.195-.037.05-.072.1-.112.149-2.449 3.241-6.18 5.099-10.236 5.099v5.988c3.164 0 6.292-.8 9.048-2.314 1.473-.809 2.836-1.817 4.05-2.992.285-.276.564-.564.832-.857.894-.985 1.683-2.063 2.348-3.209l.044-.074c.225-.386.473-.762.734-1.12.037-.049.074-.1.113-.152 2.448-3.24 6.18-5.099 10.236-5.099z" fill="#18181c" stroke="#8e8e97" stroke-width="0.01em" fill-rule="nonzero"/>
        <path d="m28.007 15.818c-4.056 0-7.788-1.859-10.238-5.1-.036-.049-.074-.098-.111-.151-.279-.38-.541-.782-.777-1.194-.665-1.144-1.456-2.223-2.35-3.208-.267-.292-.546-.58-.831-.856-1.211-1.175-2.573-2.182-4.05-2.992-2.756-1.514-5.884-2.314-9.048-2.314v5.988c4.056 0 7.788 1.858 10.238 5.099.038.049.074.1.111.149.263.359.511.736.733 1.118l.047.078c.664 1.143 1.454 2.221 2.347 3.207.266.292.546.58.831.856 1.213 1.175 2.576 2.183 4.05 2.992 2.756 1.514 5.884 2.314 9.048 2.314z" fill="#18181c" stroke="#8e8e97" stroke-width="0.01em" fill-rule="nonzero"/>
    </g>
</svg>